<svg width="800" height="800" viewBox="0 0 800 800" fill="none" xmlns="http://www.w3.org/2000/svg">
<g clip-path="url(#clip0_4205_25189)">
<path d="M799.578 181.25C800.364 176.405 799.69 171.436 797.641 166.976C791.341 139.288 771.328 125 737.504 125H87.5039C57.7539 125 25.7031 135.937 9.94141 157.4C8.57813 158.437 7.27813 159.613 6.10391 160.975C1.06563 166.788 -0.696875 174.263 0.428906 181.313C0.203906 183.338 0.00390625 185.376 0.00390625 187.501V587.501C0.00390625 628.926 46.0914 675.001 87.5039 675.001H737.504C778.929 675.001 800.004 628.926 800.004 587.501V187.501C800.004 185.288 799.716 183.35 799.578 181.25ZM87.5008 175L737.502 174.999H737.839L400.002 444.262L63.5266 176.099C71.1766 174.687 80.5898 175 87.5008 175ZM737.502 624.999H87.5023C73.7148 624.999 50.0023 601.299 50.0023 587.499V229.337L383.627 496.249C388.327 500.312 394.164 502.337 400.002 502.337C406.018 502.343 411.835 500.182 416.389 496.249L750.002 229.349V587.499C750.002 601.299 751.302 624.999 737.502 624.999Z" fill="white"/>
</g>
<defs>
<clipPath id="clip0_4205_25189">
<rect width="800" height="800" fill="white"/>
</clipPath>
</defs>
</svg>
